<?xml version="1.0" encoding="UTF-8" standalone="no"?>
<!-- Created with Inkscape (http://www.inkscape.org/) -->

<svg
   xmlns:dc="http://purl.org/dc/elements/1.1/"
   xmlns:cc="http://creativecommons.org/ns#"
   xmlns:rdf="http://www.w3.org/1999/02/22-rdf-syntax-ns#"
   xmlns:svg="http://www.w3.org/2000/svg"
   xmlns="http://www.w3.org/2000/svg"
   xmlns:xlink="http://www.w3.org/1999/xlink"
   xmlns:sodipodi="http://sodipodi.sourceforge.net/DTD/sodipodi-0.dtd"
   xmlns:inkscape="http://www.inkscape.org/namespaces/inkscape"
   width="192"
   height="192"
   id="svg2"
   version="1.1"
   inkscape:version="0.48.2 r9819"
   sodipodi:docname="brush_thin.png">
  <defs
     id="defs4">
    <radialGradient
       fy="37.342625"
       fx="33.845479"
       id="radialGradient1502"
       cx="41.876"
       cy="37.866"
       r="12.563"
       gradientUnits="userSpaceOnUse">
      <stop
         offset="0"
         stop-opacity=".31638"
         id="stop1919" />
      <stop
         offset=".5"
         stop-opacity=".079096"
         id="stop1920" />
      <stop
         offset="1"
         stop-opacity="0"
         id="stop1921" />
    </radialGradient>
    <linearGradient
       x1="13.739493"
       x2="15.501189"
       y1="3.3074126"
       xlink:href="#linearGradient1513"
       y2="4.9298446"
       id="linearGradient2121"
       gradientTransform="scale(1.0067403,0.99330484)"
       gradientUnits="userSpaceOnUse" />
    <linearGradient
       id="linearGradient1513">
      <stop
         offset="0"
         stop-color="#fff"
         id="stop1514" />
      <stop
         offset="1"
         stop-opacity="0"
         stop-color="#fff"
         id="stop1515" />
    </linearGradient>
    <linearGradient
       x1="8.2687056"
       x2="10.515967"
       y1="11.001971"
       y2="13.066265"
       id="linearGradient2316"
       gradientTransform="scale(1.0351705,0.96602448)"
       gradientUnits="userSpaceOnUse">
      <stop
         offset="0"
         stop-color="#d6d6d6"
         id="stop2318" />
      <stop
         offset=".25769"
         stop-color="#eaeaea"
         id="stop2322" />
      <stop
         offset=".70594"
         stop-color="#919191"
         id="stop2320" />
      <stop
         offset=".73347"
         stop-color="#d2d2d2"
         id="stop2321" />
      <stop
         offset="1"
         stop-color="#a6a6a6"
         id="stop2319" />
    </linearGradient>
    <linearGradient
       x1="0.27378519"
       x2="2.8726284"
       y1="20.491006"
       xlink:href="#linearGradient1513"
       y2="22.966608"
       id="linearGradient2222"
       gradientTransform="scale(1.3697495,0.7300605)"
       gradientUnits="userSpaceOnUse" />
    <radialGradient
       inkscape:collect="always"
       xlink:href="#radialGradient1502"
       id="radialGradient3138"
       gradientUnits="userSpaceOnUse"
       cx="41.876"
       cy="37.866"
       fx="33.845479"
       fy="37.342625"
       r="12.563" />
    <linearGradient
       inkscape:collect="always"
       xlink:href="#linearGradient1513"
       id="linearGradient3140"
       gradientUnits="userSpaceOnUse"
       gradientTransform="scale(1.0067403,0.99330484)"
       x1="13.739493"
       y1="3.3074126"
       x2="15.501189"
       y2="4.9298446" />
    <linearGradient
       inkscape:collect="always"
       xlink:href="#linearGradient2316"
       id="linearGradient3142"
       gradientUnits="userSpaceOnUse"
       gradientTransform="scale(1.0351705,0.96602448)"
       x1="8.2687056"
       y1="11.001971"
       x2="10.515967"
       y2="13.066265" />
    <linearGradient
       inkscape:collect="always"
       xlink:href="#linearGradient1513"
       id="linearGradient3144"
       gradientUnits="userSpaceOnUse"
       gradientTransform="scale(1.3697495,0.7300605)"
       x1="0.27378519"
       y1="20.491006"
       x2="2.8726284"
       y2="22.966608" />
  </defs>
  <sodipodi:namedview
     id="base"
     pagecolor="#ffffff"
     bordercolor="#666666"
     borderopacity="1.0"
     inkscape:pageopacity="0.0"
     inkscape:pageshadow="2"
     inkscape:zoom="1"
     inkscape:cx="52.527932"
     inkscape:cy="158.84649"
     inkscape:document-units="px"
     inkscape:current-layer="layer1"
     showgrid="false"
     inkscape:window-width="665"
     inkscape:window-height="653"
     inkscape:window-x="1416"
     inkscape:window-y="50"
     inkscape:window-maximized="0" />
  <metadata
     id="metadata7">
    <rdf:RDF>
      <cc:Work
         rdf:about="">
        <dc:format>image/svg+xml</dc:format>
        <dc:type
           rdf:resource="http://purl.org/dc/dcmitype/StillImage" />
        <dc:title></dc:title>
      </cc:Work>
    </rdf:RDF>
  </metadata>
  <g
     inkscape:label="Layer 1"
     inkscape:groupmode="layer"
     id="layer1"
     transform="translate(0,-860.36218)">
    <g
       style="fill-rule:evenodd"
       id="g3664"
       transform="matrix(6.231129,0,0,6.3950351,40.092365,882.50083)">
      <path
         style="fill:url(#radialGradient3138);stroke-width:1pt"
         inkscape:connector-curvature="0"
         id="path1934"
         d="m 54.439,37.866 a 12.563,12.563 0 1 0 -25.126,0 12.563,12.563 0 1 0 25.126,0 z"
         transform="matrix(0.74091,0,0,0.13637,-20.773,12.915)" />
      <path
         style="fill:#625b47;stroke-width:0.25"
         inkscape:connector-curvature="0"
         id="path2139"
         d="m 5.1124,15.088 c 2.5318,-4.155 11.088,-14.236 13.239,-14.741 2.114,-0.49593 1.775,0.7818 1.141,1.794 -0.645,1.029 -3.458,6.907 -12.687,13.62 -1.3705,0.464 -1.6926,-0.673 -1.6926,-0.673 z" />
      <path
         style="fill:#434343;stroke-width:0.25"
         inkscape:connector-curvature="0"
         id="path2140"
         d="m 0.37663,18.603 c 0,0 6.4391,1.541 6.9583,-2.039 0.5192,-3.581 -1.9917,-1.852 -3.0638,-1.769 -1.4947,0.054 -2.9655,1.604 -3.8945,3.808 z" />
      <path
         style="fill:url(#linearGradient3140);stroke-width:0.125"
         inkscape:connector-curvature="0"
         id="path2230"
         d="M 9.7456,9.468 C 11.188,7.802 16.65,1.5822 18.121,0.9138 19.56,0.26 19.71,0.75188 19.501,1.2507 19.292,1.7496 11.999,10.605 11.169,10.292 10.34,9.9792 9.7249,9.902 9.7456,9.468 z" />
      <path
         style="fill:url(#linearGradient3142);stroke-width:0.25"
         inkscape:connector-curvature="0"
         id="path2141"
         d="M 5.2263,14.482 9.4036,9.1934 C 9.8724,10.209 12.658,10.848 12.225,11.336 11.792,11.824 7.8376,15.591 7.3759,15.767 6.9141,15.943 5.005,14.674 5.2263,14.482 z" />
      <path
         style="fill:url(#linearGradient3144);stroke-width:1pt"
         inkscape:connector-curvature="0"
         id="path2247"
         d="m 0.92111,17.977 c 0,0 1.406,-2.97 3.6492,-2.713 1.695,0.167 1.5018,0.673 1.5018,0.673 0,0 -2.1279,2.298 -5.151,2.04 z" />
    </g>
    <rect
       style="fill:#000000;fill-opacity:1"
       id="rect3091"
       width="70"
       height="12"
       x="15"
       y="1007.3622" />
  </g>
</svg>
